#N canvas 0 23 640 714 10;
#X obj 76 232 notein 1;
#X floatatom 76 314 5 0 0 0 - - -;
#X floatatom 121 263 5 0 0 0 - - -;
#X floatatom 185 262 5 0 0 0 - - -;
#X obj 185 233 ctlin;
#X obj 478 426 noteout 1;
#X obj 34 421 sendOSC;
#X obj 34 51 loadbang;
#X msg 34 75 connect localhost 8000;
#X obj 478 95 OSCroute /led;
#X text 43 94 select port to send to (overwrite 8000);
#X msg 41 129 disconnect;
#X msg 75 379 send /pad \$1 \$2;
#X obj 76 352 pack 0 0;
#X obj 121 288 == 64;
#X floatatom 121 314 5 0 0 0 - - -;
#X text 32 12 Remember to select "Arduino Leonardo" for MIDI input
and output in PD's "Media" menu;
#X text 77 208 MIDI input;
#X text 477 49 OSC input;
#X obj 478 364 unpack f f;
#X msg 185 380 send /slider \$1;
#X text 90 404 OSC output message /pad X Y where X is the number of
pad (0-15) and Y is the value for pressed/unpressed (0/1) /slider X
where X is the value of the slider position (0-127);
#X floatatom 185 332 5 0 0 0 - - -;
#X obj 185 285 maxlib/scale 0 127 0 255 0;
#X obj 185 308 int;
#X floatatom 478 392 5 0 0 0 - - -;
#X floatatom 535 392 5 0 0 0 - - -;
#X obj 478 65 dumpOSC 7001;
#X connect 0 0 1 0;
#X connect 0 1 2 0;
#X connect 1 0 13 0;
#X connect 2 0 14 0;
#X connect 3 0 23 0;
#X connect 4 0 3 0;
#X connect 7 0 8 0;
#X connect 8 0 6 0;
#X connect 9 0 19 0;
#X connect 11 0 6 0;
#X connect 12 0 6 0;
#X connect 13 0 12 0;
#X connect 14 0 15 0;
#X connect 15 0 13 1;
#X connect 19 0 25 0;
#X connect 19 1 26 0;
#X connect 20 0 6 0;
#X connect 22 0 20 0;
#X connect 23 0 24 0;
#X connect 24 0 22 0;
#X connect 25 0 5 0;
#X connect 26 0 5 1;
#X connect 27 0 9 0;
